<svg width="256" height="256" fill="none" xmlns="http://www.w3.org/2000/svg"><g clip-path="url(#clip0_11_2)"><rect width="256" height="256" rx="128" fill="#fff"/><path d="M75.827 190h29.24l12.04-41.28a117.53 117.53 0 0 0 4.3-22.145c.645-6.88 1.075-15.48 1.29-26.015h10.75c.215 10.535.645 19.35 1.29 26.015.645 6.665 2.15 14.19 4.515 22.575l11.61 40.85h31.175l35.045-107.07h-26.875l-10.75 36.98c-2.58 9.89-4.3 18.06-5.16 24.725-.86 6.45-1.29 15.05-1.505 26.015h-10.32c-.645-19.135-1.72-30.1-5.16-42.785l-12.9-44.935h-30.745l-12.47 43c-1.935 7.095-3.44 13.975-4.085 20.21-.645 6.235-1.075 14.405-1.29 24.51h-10.32c-.43-10.965-1.075-19.565-1.72-25.8-.645-6.235-2.15-13.76-4.515-22.575L68.302 82.93h-27.09L75.827 190Z" fill="#000"/></g><defs><clipPath id="clip0_11_2"><rect width="256" height="256" rx="128" fill="#fff"/></clipPath></defs><style>@media (prefers-color-scheme:dark){rect{fill:transparent}path{fill:#fff}}</style></svg>