<svg width="256" height="256" viewBox="0 0 256 256" fill="none" xmlns="http://www.w3.org/2000/svg">
<g clip-path="url(#clip0_301_2)">
<rect width="256" height="256" fill="#131313"/>
<path d="M71.7665 191L36.5665 81H68.6865L76.8265 113.56C78.8065 120.82 80.1265 127.2 80.7865 132.48C81.6665 137.54 82.3265 142.82 82.5465 147.88C82.9865 152.94 83.2065 160.42 83.4265 170.1H95.0865C95.3065 157.56 95.5265 147.88 96.1865 141.06C96.8465 134.24 98.1665 127.2 100.146 119.5L110.266 81H147.446L157.566 119.28C159.546 126.98 160.866 134.46 161.526 141.5C162.186 148.32 162.846 158 163.066 170.1H174.506L175.166 147.66C176.046 137.1 177.586 126.76 181.986 109.82L189.466 81H221.366L186.166 191H148.546L139.306 155.58C137.106 146.78 135.566 138.86 134.906 131.82C134.246 124.56 134.026 115.1 133.806 103.22C133.586 102.56 133.586 101.46 133.586 99.92H121.486C121.266 109.38 121.266 116.64 121.046 121.7C120.826 131.6 119.506 142.82 116.206 155.14L106.746 191H71.7665Z" fill="white"/>
</g>
<defs>
<clipPath id="clip0_301_2">
<rect width="256" height="256" fill="white"/>
</clipPath>
</defs>
</svg>
